<mxfile host="app.diagrams.net" modified="2023-05-19T08:55:13.594Z" agent="Mozilla/5.0 (Windows NT 10.0; Win64; x64) AppleWebKit/537.36 (KHTML, like Gecko) Chrome/113.0.0.0 Safari/537.36" etag="ifH3t4psA_w-RSc5aZHo" version="21.2.1" type="device">
  <diagram name="Страница 1" id="JIFmPkhd3AzepjLSP3gg">
    <mxGraphModel dx="733" dy="579" grid="1" gridSize="10" guides="1" tooltips="1" connect="1" arrows="1" fold="1" page="1" pageScale="1" pageWidth="827" pageHeight="1169" math="0" shadow="0">
      <root>
        <mxCell id="0" />
        <mxCell id="1" parent="0" />
        <mxCell id="WZGOJJX2mqMmzJdmvkS1-35" value="Lion" style="ellipse;whiteSpace=wrap;html=1;aspect=fixed;" vertex="1" parent="1">
          <mxGeometry x="290" y="50" width="80" height="80" as="geometry" />
        </mxCell>
        <mxCell id="WZGOJJX2mqMmzJdmvkS1-36" value="1" style="ellipse;whiteSpace=wrap;html=1;aspect=fixed;" vertex="1" parent="1">
          <mxGeometry x="315" y="50" width="30" height="30" as="geometry" />
        </mxCell>
        <mxCell id="WZGOJJX2mqMmzJdmvkS1-37" value="Eagle" style="ellipse;whiteSpace=wrap;html=1;aspect=fixed;" vertex="1" parent="1">
          <mxGeometry x="410" y="290" width="80" height="80" as="geometry" />
        </mxCell>
        <mxCell id="WZGOJJX2mqMmzJdmvkS1-38" value="2" style="ellipse;whiteSpace=wrap;html=1;aspect=fixed;" vertex="1" parent="1">
          <mxGeometry x="435" y="290" width="30" height="30" as="geometry" />
        </mxCell>
        <mxCell id="WZGOJJX2mqMmzJdmvkS1-39" value="Salmon" style="ellipse;whiteSpace=wrap;html=1;aspect=fixed;" vertex="1" parent="1">
          <mxGeometry x="410" y="130" width="80" height="80" as="geometry" />
        </mxCell>
        <mxCell id="WZGOJJX2mqMmzJdmvkS1-40" value="3" style="ellipse;whiteSpace=wrap;html=1;aspect=fixed;" vertex="1" parent="1">
          <mxGeometry x="435" y="130" width="30" height="30" as="geometry" />
        </mxCell>
        <mxCell id="WZGOJJX2mqMmzJdmvkS1-41" value="Python" style="ellipse;whiteSpace=wrap;html=1;aspect=fixed;" vertex="1" parent="1">
          <mxGeometry x="170" y="290" width="80" height="80" as="geometry" />
        </mxCell>
        <mxCell id="WZGOJJX2mqMmzJdmvkS1-42" value="4" style="ellipse;whiteSpace=wrap;html=1;aspect=fixed;" vertex="1" parent="1">
          <mxGeometry x="195" y="290" width="30" height="30" as="geometry" />
        </mxCell>
        <mxCell id="WZGOJJX2mqMmzJdmvkS1-43" value="Frog" style="ellipse;whiteSpace=wrap;html=1;aspect=fixed;" vertex="1" parent="1">
          <mxGeometry x="290" y="370" width="80" height="80" as="geometry" />
        </mxCell>
        <mxCell id="WZGOJJX2mqMmzJdmvkS1-44" style="edgeStyle=orthogonalEdgeStyle;rounded=0;orthogonalLoop=1;jettySize=auto;html=1;exitX=0.5;exitY=0;exitDx=0;exitDy=0;entryX=0.5;entryY=0;entryDx=0;entryDy=0;" edge="1" parent="1" source="WZGOJJX2mqMmzJdmvkS1-45" target="WZGOJJX2mqMmzJdmvkS1-43">
          <mxGeometry relative="1" as="geometry" />
        </mxCell>
        <mxCell id="WZGOJJX2mqMmzJdmvkS1-45" value="5" style="ellipse;whiteSpace=wrap;html=1;aspect=fixed;" vertex="1" parent="1">
          <mxGeometry x="315" y="370" width="30" height="30" as="geometry" />
        </mxCell>
        <mxCell id="WZGOJJX2mqMmzJdmvkS1-46" value="Butterfly" style="ellipse;whiteSpace=wrap;html=1;aspect=fixed;" vertex="1" parent="1">
          <mxGeometry x="410" y="450" width="80" height="80" as="geometry" />
        </mxCell>
        <mxCell id="WZGOJJX2mqMmzJdmvkS1-47" value="6" style="ellipse;whiteSpace=wrap;html=1;aspect=fixed;" vertex="1" parent="1">
          <mxGeometry x="435" y="450" width="30" height="30" as="geometry" />
        </mxCell>
        <mxCell id="WZGOJJX2mqMmzJdmvkS1-48" value="Tarantula" style="ellipse;whiteSpace=wrap;html=1;aspect=fixed;" vertex="1" parent="1">
          <mxGeometry x="170" y="450" width="80" height="80" as="geometry" />
        </mxCell>
        <mxCell id="WZGOJJX2mqMmzJdmvkS1-49" value="7" style="ellipse;whiteSpace=wrap;html=1;aspect=fixed;" vertex="1" parent="1">
          <mxGeometry x="195" y="450" width="30" height="30" as="geometry" />
        </mxCell>
        <mxCell id="WZGOJJX2mqMmzJdmvkS1-50" value="Lobster" style="ellipse;whiteSpace=wrap;html=1;aspect=fixed;" vertex="1" parent="1">
          <mxGeometry x="570" y="210" width="80" height="80" as="geometry" />
        </mxCell>
        <mxCell id="WZGOJJX2mqMmzJdmvkS1-51" value="8" style="ellipse;whiteSpace=wrap;html=1;aspect=fixed;" vertex="1" parent="1">
          <mxGeometry x="595" y="210" width="30" height="30" as="geometry" />
        </mxCell>
        <mxCell id="WZGOJJX2mqMmzJdmvkS1-52" value="Snail" style="ellipse;whiteSpace=wrap;html=1;aspect=fixed;" vertex="1" parent="1">
          <mxGeometry x="170" y="130" width="80" height="80" as="geometry" />
        </mxCell>
        <mxCell id="WZGOJJX2mqMmzJdmvkS1-53" value="9" style="ellipse;whiteSpace=wrap;html=1;aspect=fixed;" vertex="1" parent="1">
          <mxGeometry x="195" y="130" width="30" height="30" as="geometry" />
        </mxCell>
      </root>
    </mxGraphModel>
  </diagram>
</mxfile>
